
<svg version="1.1" id="Layer_1" xmlns="http://www.w3.org/2000/svg" xmlns:xlink="http://www.w3.org/1999/xlink" x="0px" y="0px"
	 viewBox="0 0 511.999 511.999" style="enable-background:new 0 0 511.999 511.999;" xml:space="preserve" fill="#cba873">
<g>
	<g>
		<path d="M485.101,4.643c-2.358-2.426-5.849-3.374-9.106-2.469c-104.921,29.073-179.524,60.658-233.398,98.914
			C201.498,59.668,137.25,28.393,36.003,0.336c-3.258-0.902-6.751,0.043-9.106,2.469c-2.356,2.424-3.203,5.942-2.207,9.174
			c0.154,0.5,15.382,50.393,12.667,82.551c-1.572,18.601-2.978,47.12,2.923,79.883c0.806,4.476,4.704,7.615,9.096,7.615
			c0.544,0,1.097-0.048,1.651-0.148c5.029-0.904,8.372-5.717,7.467-10.746c-5.512-30.609-4.179-57.49-2.696-75.047
			c1.781-21.088-2.992-47.751-7.335-66.495c18.723,12.096,49.955,34.25,83.902,66.676c1.793,1.712,4.092,2.563,6.391,2.563
			c2.439,0,4.875-0.959,6.692-2.861c3.53-3.695,3.395-9.553-0.3-13.083c-19.587-18.708-38.183-34.04-54.185-46.131
			c62.501,21.827,106.857,46.4,136.671,75.542c-11.057,8.757-21.166,17.883-30.364,27.449
			c-8.049-10.017-16.515-19.911-25.282-29.462c-3.457-3.764-9.309-4.013-13.074-0.56c-3.764,3.456-4.015,9.31-0.56,13.074
			c9.188,10.009,18.041,20.404,26.396,30.919c-25.651,30.739-42.939,65.924-53.162,107.542c-2.206,8.983-3.832,17.841-4.9,26.53
			c-1.038-0.814-2.075-1.631-3.111-2.476c-23.822-19.465-41.765-43.946-53.327-72.763c-1.902-4.744-7.291-7.045-12.033-5.142
			c-4.742,1.904-7.045,7.291-5.141,12.034c12.741,31.751,32.52,58.735,58.797,80.207c4.425,3.61,8.888,6.979,13.318,10.061
			c-0.434,31.3,6.814,59.636,20.999,82.509c-12.166,33.966-22.056,70.269-28.825,108.93c-0.881,5.032,2.485,9.828,7.518,10.71
			c0.54,0.094,1.077,0.139,1.606,0.139c4.411,0,8.317-3.164,9.104-7.658c5.82-33.238,14.023-64.685,24.028-94.366
			c6.9,7.537,14.769,14.183,23.603,19.762c19.066,12.041,41.234,18.203,65.023,18.203c7.019,0,14.183-0.537,21.446-1.617
			c33.665-5.011,68.902-21.91,101.901-48.872c29.842-24.384,53.437-54.252,70.131-88.777c2.224-4.601,0.299-10.134-4.302-12.358
			c-4.599-2.224-10.133-0.297-12.358,4.302c-15.512,32.08-37.441,59.838-65.181,82.503
			c-58.913,48.138-121.262,59.713-166.778,30.971c-10.302-6.507-19.074-14.765-26.256-24.438
			c7.711-20.584,16.277-40.263,25.494-59.045c13.234-0.184,27.595,1.036,43.764,3.732c0.514,0.086,1.026,0.128,1.532,0.128
			c4.441,0,8.362-3.208,9.116-7.733c0.84-5.041-2.565-9.808-7.606-10.648c-13.471-2.247-25.825-3.519-37.424-3.885
			c14.42-27.245,30.145-52.472,46.491-75.692c0.012-0.002,0.025-0.002,0.037-0.005c12.356-2.206,24.76-0.76,37.893,0.772
			c4.335,0.505,8.818,1.028,13.379,1.426c0.274,0.025,0.547,0.035,0.817,0.035c4.745,0,8.785-3.63,9.207-8.447
			c0.445-5.09-3.321-9.579-8.412-10.024c-4.293-0.376-8.642-0.882-12.848-1.372c-8.398-0.978-16.973-1.971-25.763-2.015
			c14.226-18.853,28.758-36.243,43.17-52.172c0.184-0.041,0.366-0.064,0.55-0.116c14.626-4.174,31.637-4.676,49.192-1.451
			c5.025,0.92,9.849-2.403,10.772-7.43c0.924-5.025-2.403-9.848-7.428-10.772c-11.044-2.028-21.962-2.755-32.414-2.213
			c9.487-9.708,18.829-18.77,27.895-27.178c3.747-3.475,3.966-9.331,0.491-13.078c-3.473-3.744-9.328-3.968-13.076-0.491
			c-20.164,18.703-41.656,40.553-63.134,65.55c-3.351-7.238-9.378-15.168-20.248-20.405c-4.604-2.218-10.134-0.284-12.352,4.319
			s-0.285,10.134,4.318,12.353c12.878,6.206,13.883,19.154,13.961,20.886c-16.473,20.318-32.758,42.512-48.251,66.585
			c-3.496-6.716-9.391-13.777-19.351-18.576c-4.604-2.218-10.135-0.284-12.352,4.319c-2.218,4.603-0.285,10.134,4.318,12.353
			c13.444,6.478,13.95,20.316,13.967,21.056c0.006,0.714,0.1,1.406,0.259,2.073c-17.635,29.604-33.922,61.82-47.871,96.656
			c-12.656-28.462-14.936-64.564-5.378-103.474c14.409-58.664,44.375-105.15,96.207-144.168c0.704-0.366,1.376-0.822,1.989-1.383
			c0.147-0.134,0.278-0.279,0.413-0.421c41.919-30.966,97.851-57.216,171.01-81.142c-13.67,9.745-29.458,21.763-46.746,36.272
			c-3.913,3.285-4.424,9.122-1.139,13.036c1.83,2.181,4.451,3.305,7.093,3.305c2.099,0,4.211-0.711,5.944-2.165
			c33.848-28.408,62.115-47.184,78.993-57.5c-6.132,24.828-14.15,64.763-11.548,95.568c1.546,18.304,6.253,74.006-11.085,132.862
			c-1.443,4.902,1.36,10.046,6.261,11.49c4.897,1.44,10.046-1.358,11.49-6.261c18.319-62.184,13.392-120.491,11.774-139.65
			c-3.683-43.594,16.884-111.029,17.092-111.705C488.304,10.583,487.458,7.066,485.101,4.643z"/>
	</g>
</g>
</svg>
