<?xml version="1.0" encoding="utf-8"?>
<!-- Generator: Adobe Illustrator 26.2.1, SVG Export Plug-In . SVG Version: 6.00 Build 0)  -->
<svg version="1.1" id="Layer_1" xmlns="http://www.w3.org/2000/svg" xmlns:xlink="http://www.w3.org/1999/xlink" x="0px" y="0px"
	 viewBox="0 0 100 100" style="enable-background:new 0 0 100 100;" xml:space="preserve">
<style type="text/css">
	.st0{fill:#BC7C3C;}
</style>
<path class="st0" d="M47.3,39.2c0,3.4,0,6.8,0,10.2c0,1.3,0.4,2.2,1.4,2.9c2.4,1.9,4.8,3.8,7.2,5.7c1.9,1.5,3.8,3,5.7,4.5
	c1.5,1.2,3.5,0.7,4.2-1c0.5-1.2,0.2-2.3-0.9-3.2c-3.9-3.1-7.7-6.2-11.6-9.3c-0.4-0.4-0.6-0.7-0.6-1.3c0-3.7,0-7.5,0-11.2
	c0-2.7,0-5.3,0-8c0-1.3-0.9-2.4-2.1-2.6c-1.7-0.4-3.2,0.9-3.2,2.6C47.3,32.2,47.3,35.7,47.3,39.2 M52.3,87.4h-4.7
	c-0.5-0.1-1-0.1-1.4-0.2c-6.7-0.7-12.9-3-18.3-7.1c-8-5.9-12.9-13.8-14.7-23.6c-0.3-1.4-0.4-2.8-0.6-4.2v-4.7
	c0.1-0.7,0.2-1.4,0.3-2.1c0.9-7.3,3.6-13.8,8.4-19.4C30,16,41.1,11.5,54.4,12.9c8.6,0.9,16.1,4.6,22.1,10.8
	c9.3,9.7,12.7,21.2,10,34.4c-2.9,14.5-15.3,26.3-29.9,28.7C55.2,87,53.8,87.2,52.3,87.4"/>
</svg>
